# xmcd CD database file
#
# Track frame offsets:
#	150
#	9490
#	25237
#	35587
#	46762
#	60640
#	72862
#	88090
#	101215
#	114342
#	127322
#
# Disc length: 1992 seconds
#
# Revision: 0
# Processed by: cddbd v1.5.1PL0 Copyright (c) Steve Scherf et al.
# Submitted via: CDex 1.51
#
DISCID=9307c60b
DTITLE=BUCKY PIZZARELLI - LOVE SONGS
DYEAR=1981
DGENRE=Jazz
TTITLE0=You must believe in spring
TTITLE1=Folks who live on the hill
TTITLE2=Bad and The beautiful
TTITLE3=Last night when we were young
TTITLE4=Sophisticated lady　～Prelude to a kiss
TTITLE5=Smoke gets in your eyes
TTITLE6=One morning in may
TTITLE7=Autumn leaves ～Autumn in New York
TTITLE8=Flashes
TTITLE9=Spring can really hang you up the most
TTITLE10=Concerto for guitar
EXTD=YEAR: 1981
EXTT0=
EXTT1=
EXTT2=
EXTT3=
EXTT4=
EXTT5=
EXTT6=
EXTT7=
EXTT8=
EXTT9=
EXTT10=
PLAYORDER=
